<svg width="20" height="20" viewBox="0 0 20 20" fill="none" xmlns="http://www.w3.org/2000/svg">
<g clip-path="url(#clip0)">
<path d="M20.0001 10.0613C20.0001 4.50381 15.5226 -0.00119019 10.0001 -0.00119019C4.47512 5.98147e-05 -0.00238037 4.50381 -0.00238037 10.0626C-0.00238037 15.0838 3.65512 19.2463 8.43512 20.0013V12.9701H5.89762V10.0626H8.43762V7.84381C8.43762 5.32256 9.93137 3.93006 12.2151 3.93006C13.3101 3.93006 14.4539 4.12631 14.4539 4.12631V6.60131H13.1926C11.9514 6.60131 11.5639 7.37756 11.5639 8.17381V10.0613H14.3364L13.8939 12.9688H11.5626V20.0001C16.3426 19.2451 20.0001 15.0826 20.0001 10.0613Z" fill="#BDBDBD"/>
</g>
<defs>
<clipPath id="clip0">
<rect width="20" height="20" fill="white"/>
</clipPath>
</defs>
</svg>
