<svg width="22" height="22" viewBox="0 0 22 22" fill="none" xmlns="http://www.w3.org/2000/svg">
<path d="M11.375 1.375C5.85268 1.375 1.375 5.85268 1.375 11.375C1.375 16.8973 5.85268 21.375 11.375 21.375C16.8973 21.375 21.375 16.8973 21.375 11.375C21.375 5.85268 16.8973 1.375 11.375 1.375ZM16.1808 8.91295C16.1875 9.01786 16.1875 9.12723 16.1875 9.23438C16.1875 12.5112 13.692 16.2857 9.1317 16.2857C7.72545 16.2857 6.42188 15.8772 5.32366 15.1741C5.52455 15.1964 5.71652 15.2054 5.92188 15.2054C7.08259 15.2054 8.14955 14.8125 9 14.1473C7.91071 14.125 6.99554 13.4107 6.68304 12.4286C7.06473 12.4844 7.40848 12.4844 7.80134 12.3839C7.24046 12.27 6.73633 11.9654 6.37459 11.5218C6.01285 11.0783 5.81582 10.5232 5.81696 9.95089V9.91964C6.14509 10.1049 6.53125 10.2188 6.93527 10.2344C6.59563 10.008 6.31709 9.70136 6.12436 9.34158C5.93162 8.98181 5.83063 8.58003 5.83036 8.17188C5.83036 7.70982 5.95089 7.28795 6.16741 6.92188C6.78996 7.68825 7.56681 8.31505 8.44747 8.76153C9.32812 9.20801 10.2929 9.46418 11.279 9.51339C10.9286 7.82813 12.1875 6.46429 13.7009 6.46429C14.4152 6.46429 15.058 6.76339 15.5112 7.24554C16.0714 7.14062 16.6071 6.9308 17.0848 6.64955C16.8996 7.22321 16.5112 7.70759 15.9955 8.01339C16.4955 7.95982 16.9777 7.82143 17.4241 7.62723C17.0871 8.12277 16.6652 8.5625 16.1808 8.91295Z" fill="#BDBDBD"/>
</svg>
