<svg width="19" height="19" viewBox="0 0 19 19" fill="none" xmlns="http://www.w3.org/2000/svg">
<path d="M1.43799 9.3701L8.60752 2.20428L9.08809 1.72372C9.19759 1.61494 9.34566 1.55389 9.5 1.55389C9.65434 1.55389 9.80242 1.61494 9.91192 1.72372L17.562 9.3701C17.6742 9.48186 17.7629 9.61497 17.8228 9.76156C17.8827 9.90816 17.9126 10.0653 17.9108 10.2236C17.9034 10.8767 17.3598 11.3981 16.7066 11.3981H15.9181V17.4414H3.08194V11.3981H2.27666C1.95938 11.3981 1.66065 11.2738 1.43614 11.0493C1.32559 10.9391 1.238 10.8081 1.17844 10.6638C1.11888 10.5195 1.08854 10.3649 1.08916 10.2088C1.08916 9.89335 1.21348 9.59461 1.43799 9.3701ZM8.46094 16.1055H10.5391V12.3203H8.46094V16.1055ZM4.41787 10.0622V16.1055H7.27344V11.875C7.27344 11.4649 7.60557 11.1328 8.01563 11.1328H10.9844C11.3944 11.1328 11.7266 11.4649 11.7266 11.875V16.1055H14.5821V10.0622H16.3634L9.49815 3.20253L9.06953 3.63114L2.63477 10.0622H4.41787Z" fill="#BDBDBD"/>
</svg>
