<svg width="75" height="75" viewBox="0 0 75 75" fill="none" xmlns="http://www.w3.org/2000/svg">
<path d="M13.8328 63.7523L8.56641 4.6875H66.4336L61.1601 63.743L37.4648 70.3125L13.8328 63.7523Z" fill="#E44F26"/>
<path d="M37.5 65.2922L56.6484 59.9836L61.1531 9.51797H37.5V65.2922Z" fill="#F1662A"/>
<path d="M37.5 31.4227H27.9141L27.2531 24.0047H37.5V16.7602H19.3359L19.5094 18.7055L21.2883 38.6672H37.5V31.4227Z" fill="#EBEBEB"/>
<path d="M37.5 50.2359L37.4672 50.2453L29.4 48.068L28.8844 42.2906H21.6117L22.6265 53.6625L37.4672 57.7828L37.5 57.7734V50.2359Z" fill="#EBEBEB"/>
<path d="M37.4742 31.4227V38.6672H46.3945L45.5555 48.0633L37.4742 50.243V57.7805L52.3266 53.6625L52.4344 52.4391L54.1359 33.368L54.314 31.4227H37.4742Z" fill="white"/>
<path d="M37.4742 16.7602V24.0047H54.9726L55.118 22.3781L55.4484 18.7055L55.6219 16.7602H37.4742Z" fill="white"/>
</svg>
