<svg width="75" height="75" viewBox="0 0 75 75" fill="none" xmlns="http://www.w3.org/2000/svg">
<path d="M0 0H75V75H0V0Z" fill="#F5DE19"/>
<path d="M50.3813 58.5938C51.0203 59.8918 52.0131 60.9828 53.2453 61.7411C54.4775 62.4993 55.8988 62.894 57.3456 62.8795C60.2652 62.8795 62.1322 61.4196 62.1322 59.3973C62.1322 56.9866 60.2143 56.1241 57 54.7179L55.2375 53.9625C50.1482 51.7955 46.7732 49.0821 46.7732 43.3446C46.7732 38.0598 50.7911 34.0339 57.0938 34.0339C59.1341 33.8866 61.1726 34.3432 62.955 35.3469C64.7375 36.3505 66.185 37.8567 67.117 39.6777L61.6072 43.2C61.2483 42.2971 60.6234 41.5246 59.8155 40.985C59.0075 40.4454 58.0546 40.1642 57.0831 40.1786C56.6592 40.1361 56.2312 40.1825 55.8262 40.3146C55.4212 40.4467 55.0482 40.6618 54.731 40.946C54.4137 41.2303 54.1592 41.5775 53.9835 41.9656C53.8078 42.3536 53.715 42.774 53.7107 43.2C53.7107 45.3134 55.0206 46.1705 58.0447 47.4857L59.8072 48.2411C65.7965 50.8098 69.1822 53.4268 69.1822 59.3116C69.1822 65.6571 64.1974 69.1339 57.5036 69.1339C54.8955 69.3001 52.295 68.708 50.016 67.4289C47.7369 66.1499 45.8767 64.2387 44.6599 61.9259L50.3813 58.5938ZM25.484 59.2045C26.5902 61.1679 27.5974 62.8286 30.0188 62.8286C32.3331 62.8286 33.7956 61.9232 33.7956 58.4009V34.4357H40.8429V58.4946C40.8429 65.7911 36.5572 69.1125 30.3188 69.1125C28.1137 69.233 25.9237 68.6835 24.0367 67.5361C22.1497 66.3887 20.6541 64.6972 19.7465 62.6839L25.484 59.2045Z" fill="black"/>
</svg>
