<svg width="75" height="75" viewBox="0 0 75 75" fill="none" xmlns="http://www.w3.org/2000/svg">
<path d="M61.6649 24.2843C60.8668 23.9768 60.0618 23.692 59.2509 23.43C59.3871 22.805 59.5125 22.1876 59.6238 21.581C61.4514 11.6202 60.2566 3.5955 56.1759 0.9534C52.2633 -1.57949 45.8646 1.06162 39.4022 7.37643C38.7654 7.99989 38.1426 8.64132 37.5346 9.30011C37.1275 8.86204 36.7133 8.43247 36.2921 8.01162C29.5192 1.25965 22.7306 -1.58607 18.6542 1.0636C14.7451 3.60439 13.5876 11.1481 15.2329 20.5883C15.3966 21.5232 15.5814 22.4533 15.7872 23.3777C14.8263 23.6843 13.899 24.0106 13.0116 24.358C5.071 27.4666 0 32.3379 0 37.3909C0 42.6096 5.44395 47.8442 13.7145 51.0182C14.385 51.2745 15.061 51.5119 15.7421 51.7304C15.5209 52.726 15.3245 53.7284 15.1532 54.7363C13.5847 64.0126 14.8096 71.3781 18.7081 73.9027C22.7347 76.51 29.4929 73.8304 36.0732 67.3715C36.6068 66.8464 37.1287 66.3064 37.6383 65.7521C38.2967 66.4654 38.9728 67.158 39.6656 67.8291C46.04 73.9876 52.3354 76.4744 56.2301 73.9429C60.2528 71.3281 61.5604 63.4156 59.8629 53.7889C59.7292 53.0348 59.5792 52.2843 59.4132 51.5383C59.8878 51.3804 60.3536 51.2179 60.8077 51.0488C69.4058 47.8504 75 42.6794 75 37.3909C75 32.3195 69.7652 27.4152 61.6649 24.2843ZM59.8002 47.6343C59.39 47.7866 58.9693 47.9337 58.5404 48.0768C57.5912 44.7027 56.3103 41.1152 54.7427 37.4083C56.2386 33.7899 57.4702 30.2481 58.3928 26.8962C59.1601 27.1455 59.9045 27.4083 60.6223 27.6856C67.5627 30.3685 71.7961 34.3346 71.7961 37.3909C71.7961 40.6462 67.224 44.8722 59.8002 47.6343ZM56.7199 54.4876C57.4705 58.7442 57.5774 62.5929 57.0803 65.6018C56.6338 68.3054 55.7355 70.1077 54.6246 70.8297C52.2612 72.3659 47.2066 70.3692 41.7554 65.1021C41.1109 64.4782 40.4821 63.8343 39.8695 63.1712C41.983 60.5761 44.095 57.5593 46.1563 54.2087C49.7821 53.8475 53.2075 53.2567 56.3139 52.4504C56.4668 53.1435 56.6027 53.8231 56.7199 54.4876ZM25.5691 70.5643C23.26 71.4797 21.4207 71.506 20.3089 70.7863C17.9432 69.2544 16.9597 63.3402 18.3012 55.4073C18.4606 54.4699 18.6432 53.5377 18.8487 52.6116C21.9208 53.3748 25.3213 53.9235 28.9556 54.2544C31.031 57.533 33.2039 60.5465 35.3938 63.1853C34.9285 63.6909 34.452 64.1836 33.965 64.6629C31.055 67.5189 28.1391 69.5452 25.5691 70.5643ZM14.751 47.6143C11.0938 46.2106 8.07363 44.3866 6.00352 42.3962C4.14316 40.6077 3.2042 38.8317 3.2042 37.3909C3.2042 34.3245 7.27559 30.4133 14.0663 27.755C14.8904 27.4327 15.7529 27.1284 16.6479 26.8429C17.5866 30.2705 18.8177 33.8544 20.3033 37.4784C18.7983 41.156 17.5497 44.7971 16.602 48.2652C15.9803 48.0653 15.3631 47.8482 14.751 47.6143ZM18.3773 19.8972C16.9679 11.8093 17.9039 5.70833 20.2597 4.17708C22.7687 2.54616 28.3169 4.87149 34.1648 10.7018C34.5462 11.0828 34.9213 11.4716 35.2901 11.8679C33.111 14.4952 30.958 17.4863 28.9011 20.7455C25.3737 21.1126 21.9973 21.7021 18.893 22.4919C18.7017 21.6321 18.5298 20.767 18.3773 19.8975V19.8972ZM50.729 28.8669C49.9958 27.4448 49.2353 26.0407 48.4482 24.6554C50.8412 24.9952 53.134 25.4462 55.287 25.9975C54.6407 28.3238 53.8351 30.7557 52.8867 33.2491C52.1935 31.7724 51.4742 30.3114 50.729 28.8669ZM37.536 14.4389C39.0138 16.2366 40.4938 18.2435 41.9496 20.4212C38.9965 20.2646 36.0384 20.2639 33.0853 20.4192C34.5425 18.2616 36.0352 16.2573 37.536 14.4389ZM24.2584 28.8916C23.5226 30.3244 22.8166 31.7763 22.1411 33.2462C21.2083 30.7616 20.41 28.3185 19.7581 25.9593C21.8979 25.4218 24.1799 24.9823 26.5576 24.6488C25.7617 26.0425 24.9951 27.4571 24.2584 28.8912V28.8916ZM26.6259 50.3889C24.1693 50.081 21.8531 49.6643 19.7139 49.1412C20.376 46.7399 21.1919 44.2448 22.1449 41.707C22.8231 43.1779 23.532 44.6308 24.271 46.0643C25.031 47.5379 25.8179 48.9814 26.6259 50.3889ZM37.6245 60.5962C36.1058 58.7567 34.5911 56.7215 33.1119 54.5327C34.548 54.5958 36.012 54.6281 37.5 54.6281C39.0287 54.6281 40.5398 54.5896 42.0272 54.5152C40.5668 56.7435 39.0923 58.7817 37.6245 60.5962ZM52.9169 41.5774C53.9194 44.1432 54.7644 46.6251 55.4353 48.9853C53.2608 49.5425 50.913 49.9912 48.4392 50.3245C49.2319 48.9134 49.9995 47.4849 50.7416 46.0396C51.4961 44.5705 52.2214 43.0827 52.9169 41.5774ZM47.9663 44.2422C46.8302 46.4581 45.6303 48.632 44.3684 50.7603C42.0825 50.9421 39.7916 51.0324 37.5 51.031C35.1659 51.031 32.8957 50.9495 30.7096 50.7902C29.4147 48.6668 28.1919 46.4892 27.0437 44.262H27.0439C25.9011 42.0465 24.8337 39.7832 23.8438 37.4768C24.8311 35.1698 25.8954 32.9054 27.0343 30.6883L27.034 30.6886C28.1725 28.4709 29.3855 26.3026 30.6706 24.1883C32.901 23.9988 35.1882 23.9001 37.4997 23.9001H37.5C39.8221 23.9001 42.1122 23.9998 44.342 24.1906C45.6141 26.3017 46.8194 28.4626 47.9558 30.6692C49.0985 32.8814 50.1768 35.1348 51.189 37.4258C50.1872 39.7402 49.1123 42.0137 47.9663 44.2422ZM54.5757 4.06985C57.087 5.69616 58.0638 12.2544 56.4858 20.8547C56.3851 21.4034 56.272 21.9623 56.1489 22.5291C53.037 21.7225 49.6582 21.1228 46.1206 20.7501C44.0599 17.455 41.9244 14.4593 39.7808 11.8659C40.3426 11.2578 40.9177 10.6656 41.5058 10.0896C47.0429 4.67939 52.2179 2.5432 54.5757 4.06985ZM37.5 29.8712C41.1987 29.8712 44.1973 33.2379 44.1973 37.3909C44.1973 41.5439 41.1987 44.9106 37.5 44.9106C33.8013 44.9106 30.8027 41.5439 30.8027 37.3909C30.8027 33.2379 33.8013 29.8712 37.5 29.8712Z" fill="#00D8FF"/>
</svg>
