<svg width="19" height="18" viewBox="0 0 19 18" fill="none" xmlns="http://www.w3.org/2000/svg">
<path d="M3.59219 10.4906V9.89999H3.02813V10.7437C3.02813 10.8844 3.14688 11.025 3.29531 11.025C3.77031 11.025 4.12656 11.3906 4.12656 11.8687C4.12656 12.3469 3.74063 12.7125 3.29531 12.7125C2.85 12.7125 2.46406 12.3469 2.46406 11.8687C2.46406 11.7281 2.34531 11.5875 2.19688 11.5875C2.04844 11.5875 1.92969 11.7 1.92969 11.8687C1.92969 12.6281 2.55313 13.2469 3.325 13.2469C4.09688 13.2469 4.72031 12.6281 4.72031 11.8687C4.69063 11.1656 4.21563 10.6031 3.59219 10.4906Z" fill="#3E4347"/>
<path d="M17.2188 2.25H3.53281L1.78125 5.625H17.2188V4.78125H16.5953L17.2188 3.68438V2.25ZM3.14688 4.78125L3.82969 3.43125L4.57187 4.78125H3.14688ZM4.48281 3.09375H5.72969L5.10625 4.19062L4.48281 3.09375ZM5.58125 4.78125L6.20469 3.68438L6.82812 4.78125H5.58125ZM6.67969 3.09375H7.92656L7.30312 4.19062L6.67969 3.09375ZM7.77813 4.78125L8.40156 3.68438L9.025 4.78125H7.77813ZM8.87656 3.09375H10.1234L9.5 4.19062L8.87656 3.09375ZM9.975 4.78125L10.5984 3.68438L11.2219 4.78125H9.975ZM16.1203 4.19062L15.4969 3.09375H16.7438L16.1203 4.19062Z" fill="#3E4347"/>
<path d="M2.99844 5.34375H3.59219V8.15625H2.99844V5.34375Z" fill="#3E4347"/>
<path d="M3.80001 7.875H2.82032L1.81094 9H4.77969L3.80001 7.875Z" fill="#BDBDBD"/>
<path d="M1.81094 9L2.82032 10.125H3.80001L4.77969 9H1.81094Z" fill="#BDBDBD"/>
<path d="M14.6656 8.15625V9L12.0531 8.15625H11.2812V17.4375H12.0531V15.75L14.6656 16.5938L12.0531 17.4375H15.4375V8.15625H14.6656ZM14.6656 15.75L12.0531 14.9062L14.6656 14.0625V15.75ZM12.0531 14.0625V12.375L14.6656 13.2188L12.0531 14.0625ZM14.6656 12.375L12.0531 11.5312L14.6656 10.6875V12.375ZM12.0531 10.6875V9L14.6656 9.84375L12.0531 10.6875Z" fill="#BDBDBD"/>
<path d="M16.0312 7.65C16.0312 8.07188 15.675 8.4375 15.2594 8.4375H11.4594C11.0437 8.4375 10.6875 8.07188 10.6875 7.65V1.35C10.6875 0.928125 11.0437 0.5625 11.4594 0.5625H15.2891C15.675 0.5625 16.0312 0.928125 16.0312 1.35V7.65Z" fill="#BDBDBD"/>
<path d="M11.5484 4.275C11.5484 4.55625 11.7562 4.78125 11.9937 4.78125H14.6656C14.9031 4.78125 15.1109 4.55625 15.1109 4.275V1.9125C15.1109 1.63125 14.9031 1.40625 14.6656 1.40625H11.9937C11.7562 1.40625 11.5484 1.63125 11.5484 1.9125V4.275Z" fill="#BDBDBD"/>
<path d="M15.1109 7.03125C15.1109 7.34063 14.8734 7.59375 14.6062 7.59375H12.0531C11.7859 7.59375 11.5484 7.34063 11.5484 7.03125V5.90625C11.5484 5.59687 11.7859 5.34375 12.0531 5.34375H14.6062C14.8734 5.34375 15.1109 5.59687 15.1109 5.90625V7.03125Z" fill="#BDBDBD"/>
</svg>
