<svg width="70" height="70" viewBox="0 0 70 70" fill="none" xmlns="http://www.w3.org/2000/svg">
<path d="M13.2344 40.7969V38.5H11.1562V41.7813C11.1562 42.3282 11.5938 42.875 12.1406 42.875C13.8906 42.875 15.2031 44.2969 15.2031 46.1563C15.2031 48.0157 13.7813 49.4375 12.1406 49.4375C10.5 49.4375 9.07813 48.0157 9.07813 46.1563C9.07813 45.6094 8.64063 45.0625 8.09375 45.0625C7.54688 45.0625 7.10938 45.5 7.10938 46.1563C7.10938 49.1094 9.40625 51.5156 12.25 51.5156C15.0937 51.5156 17.3906 49.1094 17.3906 46.1563C17.2812 43.4219 15.5312 41.2344 13.2344 40.7969Z" fill="#BDBDBD"/>
<path d="M63.4375 8.75H13.0156L6.5625 21.875H63.4375V18.5938H61.1406L63.4375 14.3281V8.75ZM11.5938 18.5938L14.1094 13.3438L16.8438 18.5938H11.5938ZM16.5156 12.0312H21.1094L18.8125 16.2969L16.5156 12.0312ZM20.5625 18.5938L22.8594 14.3281L25.1562 18.5938H20.5625ZM24.6094 12.0312H29.2031L26.9062 16.2969L24.6094 12.0312ZM28.6562 18.5938L30.9531 14.3281L33.25 18.5938H28.6562ZM32.7031 12.0312H37.2969L35 16.2969L32.7031 12.0312ZM36.75 18.5938L39.0469 14.3281L41.3438 18.5938H36.75ZM59.3906 16.2969L57.0938 12.0312H61.6875L59.3906 16.2969Z" fill="#BDBDBD"/>
<path d="M11.0468 20.7812H13.2343V31.7188H11.0468V20.7812Z" fill="#BDBDBD"/>
<path d="M13.9999 30.625H10.3906L6.67181 35H17.6093L13.9999 30.625Z" fill="#FFB952"/>
<path d="M6.67181 35L10.3906 39.375H13.9999L17.6093 35H6.67181Z" fill="#FFB952"/>
<path d="M54.0313 31.7188V35L44.4062 31.7188H41.5625V67.8125H44.4062V61.25L54.0313 64.5312L44.4062 67.8125H56.875V31.7188H54.0313ZM54.0313 61.25L44.4062 57.9688L54.0313 54.6875V61.25ZM44.4062 54.6875V48.125L54.0313 51.4062L44.4062 54.6875ZM54.0313 48.125L44.4062 44.8438L54.0313 41.5625V48.125ZM44.4062 41.5625V35L54.0313 38.2812L44.4062 41.5625Z" fill="#FFB952"/>
<path d="M59.0625 29.75C59.0625 31.3906 57.75 32.8125 56.2188 32.8125H42.2187C40.6875 32.8125 39.375 31.3906 39.375 29.75V5.25C39.375 3.60938 40.6875 2.1875 42.2187 2.1875H56.3281C57.75 2.1875 59.0625 3.60938 59.0625 5.25V29.75Z" fill="#FFB952"/>
<path d="M42.5469 16.625C42.5469 17.7188 43.3126 18.5938 44.1876 18.5938H54.0313C54.9063 18.5938 55.6719 17.7188 55.6719 16.625V7.4375C55.6719 6.34375 54.9063 5.46875 54.0313 5.46875H44.1876C43.3126 5.46875 42.5469 6.34375 42.5469 7.4375V16.625Z" fill="#FFB952"/>
<path d="M55.6719 27.3438C55.6719 28.5469 54.7969 29.5312 53.8126 29.5312H44.4063C43.4219 29.5312 42.5469 28.5469 42.5469 27.3438V22.9688C42.5469 21.7656 43.4219 20.7812 44.4063 20.7812H53.8126C54.7969 20.7812 55.6719 21.7656 55.6719 22.9688V27.3438Z" fill="#FFB952"/>
</svg>
