<svg width="19" height="19" viewBox="0 0 19 19" fill="none" xmlns="http://www.w3.org/2000/svg">
<path d="M13.6748 8.13808C13.4967 8.42568 13.2833 8.70771 13.0365 8.98417C12.9167 9.11869 12.7714 9.228 12.6089 9.30573C12.4464 9.38346 12.2701 9.42805 12.0902 9.43691C11.9102 9.44729 11.7299 9.42181 11.5598 9.36192C11.3897 9.30204 11.2332 9.20896 11.0994 9.08808C10.945 8.94937 10.824 8.77747 10.7456 8.58529C10.6672 8.39311 10.6334 8.18565 10.6467 7.97851C10.7023 7.09902 10.4166 6.06552 9.79686 4.904C9.48328 4.32138 9.10848 3.82412 8.66131 3.4122C8.61552 3.70658 8.54031 3.99563 8.4368 4.27499C8.18279 4.95501 7.81789 5.58826 7.35692 6.14902C7.03687 6.54156 6.67195 6.89528 6.26961 7.20292C5.63875 7.6872 5.11922 8.31621 4.77039 9.01943C4.41347 9.73376 4.22856 10.5217 4.23045 11.3202C4.23045 12.71 4.77782 14.0162 5.77049 15.0015C6.76688 15.9886 8.08983 16.5304 9.49998 16.5304C10.9101 16.5304 12.2331 15.9886 13.2295 15.0015C14.2222 14.0181 14.7695 12.71 14.7695 11.3202C14.7695 10.5929 14.6192 9.88593 14.3242 9.22167C14.1516 8.83203 13.9346 8.47021 13.6748 8.13808Z" fill="#FFB952"/>
<path d="M15.4765 8.70586C15.1163 7.89512 14.5926 7.16744 13.9383 6.56836L13.3983 6.07295C13.38 6.05659 13.3579 6.04498 13.3341 6.03913C13.3102 6.03329 13.2853 6.0334 13.2615 6.03945C13.2376 6.04549 13.2157 6.05729 13.1975 6.07381C13.1793 6.09032 13.1654 6.11105 13.1571 6.13418L12.9159 6.82627C12.7656 7.26045 12.4892 7.7039 12.0977 8.13994C12.0717 8.16777 12.042 8.17519 12.0216 8.17705C12.0012 8.1789 11.9696 8.17519 11.9418 8.14922C11.9158 8.12695 11.9028 8.09355 11.9047 8.06015C11.9733 6.94316 11.6394 5.6833 10.9083 4.31211C10.3034 3.17285 9.46289 2.28408 8.4127 1.66435L7.64639 1.21347C7.54619 1.1541 7.41816 1.23203 7.42373 1.34892L7.46455 2.23955C7.49238 2.84814 7.42188 3.38623 7.25488 3.83339C7.05078 4.38076 6.75762 4.88916 6.38281 5.3456C6.12198 5.66282 5.82634 5.94974 5.50147 6.20097C4.71902 6.80245 4.0828 7.57315 3.64043 8.45537C3.19915 9.34527 2.96929 10.325 2.96875 11.3184C2.96875 12.1941 3.14131 13.0421 3.48271 13.8418C3.81237 14.6117 4.2881 15.3105 4.88359 15.8995C5.48477 16.4933 6.18242 16.9608 6.95986 17.2855C7.76514 17.6232 8.61865 17.7939 9.5 17.7939C10.3813 17.7939 11.2349 17.6232 12.0401 17.2874C12.8157 16.9646 13.5209 16.4938 14.1164 15.9014C14.7176 15.3076 15.1889 14.6137 15.5173 13.8436C15.8582 13.0461 16.0331 12.1875 16.0313 11.3202C16.0313 10.4147 15.8457 9.53525 15.4765 8.70586ZM13.2295 15.0015C12.2331 15.9886 10.9102 16.5304 9.5 16.5304C8.08984 16.5304 6.76689 15.9886 5.77051 15.0015C4.77783 14.0162 4.23047 12.71 4.23047 11.3202C4.23047 10.5131 4.4123 9.73935 4.77041 9.01943C5.11924 8.31621 5.63877 7.6872 6.26963 7.20293C6.67197 6.89528 7.03689 6.54157 7.35693 6.14902C7.8208 5.5831 8.18447 4.95224 8.43682 4.275C8.54033 3.99563 8.61554 3.70659 8.66133 3.4122C9.1085 3.82412 9.4833 4.32138 9.79688 4.904C10.4166 6.06552 10.7023 7.09902 10.6467 7.97851C10.6334 8.18565 10.6672 8.39311 10.7456 8.58529C10.824 8.77747 10.945 8.94938 11.0994 9.08808C11.2332 9.20896 11.3897 9.30204 11.5598 9.36192C11.7299 9.42181 11.9102 9.4473 12.0902 9.43691C12.4558 9.41836 12.7916 9.25693 13.0365 8.98418C13.2833 8.70771 13.4967 8.42568 13.6748 8.13808C13.9346 8.47021 14.1517 8.83203 14.3242 9.22168C14.6192 9.88593 14.7695 10.5929 14.7695 11.3202C14.7695 12.71 14.2222 14.0181 13.2295 15.0015Z" fill="#FFB952"/>
</svg>
