<svg width="24" height="24" viewBox="0 0 24 24" fill="none" xmlns="http://www.w3.org/2000/svg">
<g clip-path="url(#clip0)">
<path d="M5.98669 22.385C-1.99524 17.7833 -1.99524 6.21663 5.98669 1.61496C13.9686 -2.98672 24.0002 2.79663 24.0002 12C24.0002 21.2033 13.9687 26.9867 5.98669 22.385ZM13.6883 9.20711C13.7812 7.33329 13.8121 6.53571 13.7502 5.00233L12.0002 6.69044C12.124 7.08808 12.3074 8.16185 12.3074 8.16185C12.3074 8.16185 13.2288 8.74521 13.6883 9.20711H13.6883ZM15.8264 22.1321L12.3074 16.3855C10.8961 16.3447 9.27239 15.9021 6.13833 16.3571C6.23548 15.3901 6.63259 14.4777 7.27407 13.7476C6.79671 13.5449 6.30384 13.3809 5.80022 13.2571C5.98594 12.5809 7.76452 11.7833 8.01216 11.6928C7.88832 11.8452 7.39786 12.3976 7.21214 12.8285C7.85738 12.919 8.71692 13.4404 8.71692 13.4404C8.71692 13.4404 7.79546 14.3 7.36692 15.3738C9.97365 14.9264 10.1206 15.3881 18.6288 16.1119C19.7163 14.7377 19.6244 15.2659 18.9669 14.0857C16.9121 13.0428 13.8431 10.5262 11.8169 8.49996L10.2503 3.25235C8.53355 4.54047 8.25736 6.99522 7.305 8.65469C5.47406 10.0286 4.3312 14.7191 3.41213 18.6048C4.43353 20.1452 9.20738 24.525 15.8264 22.1321ZM11.817 11.5071C12.8598 11.3547 13.6265 11.9071 14.3336 12.4286L13.1669 12.7667C12.5836 12.4286 12.0622 12.2452 11.5717 12.3048L11.817 11.5071ZM22.8014 12C22.8014 3.71603 13.772 -1.48953 6.58744 2.65244C1.38839 5.64977 -0.0445799 11.9198 2.28094 16.7316C3.70748 12.6696 5.21063 9.59979 6.8145 7.82618C7.67405 5.27852 8.86927 3.09761 10.436 1.80949L11.7241 5.76902L14.2717 3.28328C14.2717 3.25235 14.6716 6.96663 14.4859 9.75954C16.1121 11.4167 20.8693 14.4238 20.8693 14.4238C20.8693 14.4238 19.2121 16.7571 18.905 16.8785C18.3314 17.1106 15.9365 16.7188 14.0264 16.5405L17.7256 21.146C20.7078 19.2865 22.8014 15.9965 22.8014 12Z" fill="#BDBDBD"/>
</g>
<defs>
<clipPath id="clip0">
<rect width="24" height="24" fill="white"/>
</clipPath>
</defs>
</svg>
